<?xml version="1.0" encoding="UTF-8" standalone="no"?>
<!DOCTYPE svg PUBLIC "-//W3C//DTD SVG 1.1//EN" "http://www.w3.org/Graphics/SVG/1.1/DTD/svg11.dtd">
<svg width="100%" height="100%" viewBox="0 0 1000 1000" version="1.1" xmlns="http://www.w3.org/2000/svg" xmlns:xlink="http://www.w3.org/1999/xlink" xml:space="preserve" xmlns:serif="http://www.serif.com/" style="fill-rule:evenodd;clip-rule:evenodd;stroke-linejoin:round;stroke-miterlimit:2;">
    <g transform="matrix(1,0,0,1,-2424.49,0)">
        <g id="Artboard1" transform="matrix(1,0,0,1,2424.49,0)">
            <rect x="0" y="0" width="1000" height="1000" style="fill:none;"/>
            <g transform="matrix(1.17658,0,0,1.17658,-205.599,248.291)">
                <path d="M643.262,145.171L556.082,428.083C555.884,428.728 555.289,429.167 554.615,429.167L423.905,429.167C423.252,429.167 422.671,428.754 422.455,428.138L275.093,6.992C274.929,6.522 275.002,6.002 275.29,5.596C275.578,5.19 276.045,4.949 276.543,4.949L395.101,4.949C395.783,4.949 396.384,5.399 396.575,6.054C401.446,22.718 460.051,223.206 479.261,288.924C479.451,289.575 480.045,290.024 480.724,290.029C481.402,290.034 482.003,289.593 482.202,288.945L569.382,6.033C569.58,5.388 570.176,4.949 570.85,4.949L689.289,4.949L643.727,144.46C643.513,144.644 643.349,144.888 643.262,145.171ZM695.33,4.949L701.56,4.949C702.212,4.949 702.794,5.362 703.009,5.978L752.811,148.305C750.265,141.031 749.059,133.356 749.248,125.652C751.872,19.345 820.692,-1.301 882.702,-1.301C900.934,-1.301 906.899,0.179 923.078,2.419C923.836,2.526 924.399,3.175 924.399,3.94C924.399,15.522 924.399,98.941 924.399,112.399C924.399,112.853 924.198,113.284 923.851,113.576C923.503,113.867 923.044,113.99 922.597,113.912C905.322,110.896 899.589,107.98 874.252,107.98C836.381,107.98 768.255,109.545 792.462,251.822C794.628,264.513 797.854,277 802.106,289.151C815.724,328.104 850.371,427.124 850.371,427.124C850.536,427.594 850.462,428.114 850.174,428.52C849.886,428.926 849.42,429.167 848.922,429.167L695.33,429.167L695.33,4.949Z" style="fill:rgb(5,4,8);"/>
            </g>
        </g>
    </g>
</svg>
