<?xml version="1.0" encoding="UTF-8" standalone="no"?>
<!DOCTYPE svg PUBLIC "-//W3C//DTD SVG 1.1//EN" "http://www.w3.org/Graphics/SVG/1.1/DTD/svg11.dtd">
<svg width="100%" height="100%" viewBox="0 0 1000 1000" version="1.1" xmlns="http://www.w3.org/2000/svg" xmlns:xlink="http://www.w3.org/1999/xlink" xml:space="preserve" xmlns:serif="http://www.serif.com/" style="fill-rule:evenodd;clip-rule:evenodd;stroke-linejoin:round;stroke-miterlimit:2;">
    <g transform="matrix(1,0,0,1,-5777.36,0)">
        <g id="Artboard1" transform="matrix(1,0,0,1,5777.36,0)">
            <rect x="0" y="0" width="1000" height="1000" style="fill:none;"/>
            <g transform="matrix(1,0,0,1,-4374.52,0)">
                <path d="M5013.02,526.013L5001.82,487.718C5001.82,487.718 5040.02,532.62 5089.82,502.778C5069.59,548.754 5013.02,526.013 5013.02,526.013Z" style="fill:rgb(186,194,202);"/>
            </g>
            <g transform="matrix(1.17658,0,0,1.17658,-180.966,248.291)">
                <path d="M552.393,429.167L422.815,429.167L274.378,4.949L396.252,4.949C396.252,4.949 477.266,282.1 484.761,307.741C485.089,308.864 486.119,309.636 487.29,309.636L487.659,309.636C488.541,309.636 489.356,309.267 489.933,308.656L493.283,299.13C509.27,250.609 581.103,48.953 594.601,11.091L596.762,4.949L715.646,4.949C808.098,4.949 883.157,80.008 883.157,172.46C883.157,221.505 862.033,265.656 828.395,296.303L874.886,429.167L753.012,429.167L726.831,339.603C726.805,339.605 726.78,339.606 726.754,339.608C717.277,307.189 706.457,270.173 696.495,236.092L715.646,236.092C750.765,236.092 779.278,207.58 779.278,172.46C779.278,137.341 750.765,108.828 715.646,108.828L664.806,108.828L552.393,429.167Z" style="fill:rgb(5,4,8);"/>
            </g>
            <g transform="matrix(1,0,0,1,-4371.16,6.49696)">
                <circle cx="5015.82" cy="424.965" r="19.743" style="fill:rgb(186,194,202);"/>
            </g>
        </g>
    </g>
</svg>
