<?xml version="1.0" encoding="UTF-8" standalone="no"?>
<!DOCTYPE svg PUBLIC "-//W3C//DTD SVG 1.1//EN" "http://www.w3.org/Graphics/SVG/1.1/DTD/svg11.dtd">
<svg width="100%" height="100%" viewBox="0 0 1000 1000" version="1.1" xmlns="http://www.w3.org/2000/svg" xmlns:xlink="http://www.w3.org/1999/xlink" xml:space="preserve" xmlns:serif="http://www.serif.com/" style="fill-rule:evenodd;clip-rule:evenodd;stroke-linejoin:round;stroke-miterlimit:2;">
    <g transform="matrix(1,0,0,1,-2706.45,0)">
        <g id="Artboard1" transform="matrix(1,0,0,1,2706.45,0)">
            <rect x="0" y="0" width="1000" height="1000" style="fill:none;"/>
            <g transform="matrix(1.17658,0,0,1.17658,-200.654,248.291)">
                <path d="M673.421,94.001C671.609,94.001 669.995,95.145 669.393,96.854C657.951,129.384 552.502,429.167 552.502,429.167L422.815,429.167L274.378,4.949L396.252,4.949C396.252,4.949 477.266,282.1 484.761,307.741C485.089,308.864 486.119,309.636 487.29,309.636L487.659,309.636C489.048,309.636 490.27,308.72 490.66,307.387C498.763,279.664 579.065,4.949 579.065,4.949L625.71,4.949L724.834,4.936C819.759,4.936 881.87,58.844 881.87,148.495C881.87,207.09 856.489,248.693 810.784,270.373L865.766,429.167L744.474,429.167L680.401,206.944C679.972,205.455 680.267,203.85 681.199,202.612C682.131,201.373 683.591,200.645 685.14,200.645L715.167,200.645C757.356,200.645 781.38,185.41 781.38,148.495C781.38,110.994 757.356,94.001 715.167,94.001L673.421,94.001Z" style="fill:rgb(5,4,8);"/>
            </g>
        </g>
    </g>
</svg>
