<?xml version="1.0" encoding="UTF-8" standalone="no"?>
<!DOCTYPE svg PUBLIC "-//W3C//DTD SVG 1.1//EN" "http://www.w3.org/Graphics/SVG/1.1/DTD/svg11.dtd">
<svg width="100%" height="100%" viewBox="0 0 1000 1000" version="1.1" xmlns="http://www.w3.org/2000/svg" xmlns:xlink="http://www.w3.org/1999/xlink" xml:space="preserve" xmlns:serif="http://www.serif.com/" style="fill-rule:evenodd;clip-rule:evenodd;stroke-linejoin:round;stroke-miterlimit:2;">
    <rect id="Artboard1" x="0" y="0" width="1000" height="1000" style="fill:none;"/>
    <g transform="matrix(1.17658,0,0,1.17658,-225.599,248.291)">
        <g id="Artboard11" serif:id="Artboard1">
            <path d="M556.082,428.083C555.884,428.728 555.289,429.167 554.615,429.167L423.905,429.167C423.252,429.167 422.671,428.754 422.455,428.138L275.093,6.992C274.929,6.522 275.002,6.002 275.29,5.596C275.578,5.19 276.045,4.949 276.543,4.949L395.101,4.949C395.783,4.949 396.384,5.399 396.575,6.054C401.446,22.718 460.051,223.206 479.261,288.924C479.451,289.575 480.045,290.024 480.724,290.029C481.402,290.034 482.003,289.593 482.202,288.945L569.382,6.033C569.58,5.388 570.176,4.949 570.85,4.949L701.56,4.949C702.212,4.949 702.794,5.362 703.009,5.978L850.371,427.124C850.536,427.594 850.462,428.114 850.174,428.52C849.886,428.926 849.42,429.167 848.922,429.167L730.364,429.167C729.681,429.167 729.081,428.717 728.889,428.062C724.018,411.398 665.414,210.91 646.204,145.192C646.014,144.541 645.419,144.092 644.741,144.087C644.063,144.082 643.462,144.523 643.262,145.171L556.082,428.083ZM785.297,117.268C781.988,107.814 780.951,97.713 782.27,87.784C789.753,31.286 841.379,-1.301 899.7,-1.301C917.932,-1.301 940.896,0.179 957.075,2.419C957.833,2.526 958.396,3.175 958.396,3.94C958.396,15.522 958.396,98.941 958.396,112.399C958.396,112.853 958.195,113.284 957.848,113.576C957.5,113.867 957.041,113.99 956.594,113.912C939.319,110.896 916.587,107.98 891.25,107.98C853.76,107.98 820.802,130.479 804.832,160.115C804.361,161.012 803.403,161.544 802.393,161.469C801.382,161.395 800.512,160.729 800.178,159.772C796.749,149.998 789.706,129.871 785.297,117.268Z" style="fill:rgb(20,23,29);"/>
        </g>
    </g>
</svg>
