<?xml version="1.0" encoding="UTF-8" standalone="no"?>
<!DOCTYPE svg PUBLIC "-//W3C//DTD SVG 1.1//EN" "http://www.w3.org/Graphics/SVG/1.1/DTD/svg11.dtd">
<svg width="100%" height="100%" viewBox="0 0 1000 1000" version="1.1" xmlns="http://www.w3.org/2000/svg" xmlns:xlink="http://www.w3.org/1999/xlink" xml:space="preserve" xmlns:serif="http://www.serif.com/" style="fill-rule:evenodd;clip-rule:evenodd;stroke-linejoin:round;stroke-miterlimit:2;">
    <g transform="matrix(1.17658,0,0,1.17658,-251.409,248.291)">
        <path d="M701.721,4.949L552.502,429.167L422.815,429.167L274.378,4.949L396.252,4.949C396.252,4.949 477.266,282.1 484.761,307.741C485.089,308.864 486.119,309.636 487.29,309.636L487.659,309.636C489.048,309.636 490.27,308.72 490.66,307.387C498.763,279.664 579.065,4.949 579.065,4.949L701.721,4.949ZM717.971,429.167L717.971,4.949L829.69,4.949L829.69,105.339C829.69,105.961 829.937,106.557 830.377,106.997C830.816,107.437 831.412,107.684 832.034,107.684C832.034,107.684 832.035,107.684 832.035,107.683C833.425,107.683 834.649,106.772 835.048,105.441C850.528,53.735 869.106,-1.301 944.204,-1.301C962.938,-1.301 986.668,0.262 1002.9,2.606L1002.9,114.23C985.419,111.105 950.449,107.98 924.221,107.98C840.542,107.98 833.596,190.994 833.596,242.556L833.596,429.167L717.971,429.167Z" style="fill:rgb(20,23,29);"/>
    </g>
</svg>
