<?xml version="1.0" encoding="UTF-8" standalone="no"?>
<!DOCTYPE svg PUBLIC "-//W3C//DTD SVG 1.1//EN" "http://www.w3.org/Graphics/SVG/1.1/DTD/svg11.dtd">
<svg width="100%" height="100%" viewBox="0 0 1000 1000" version="1.1" xmlns="http://www.w3.org/2000/svg" xmlns:xlink="http://www.w3.org/1999/xlink" xml:space="preserve" xmlns:serif="http://www.serif.com/" style="fill-rule:evenodd;clip-rule:evenodd;stroke-linejoin:round;stroke-miterlimit:2;">
    <g transform="matrix(1,0,0,1,-5777.36,-1721.54)">
        <g id="v1" transform="matrix(1,0,0,1,5777.36,1721.54)">
            <rect x="0" y="0" width="1000" height="1000" style="fill:none;"/>
            <clipPath id="_clip1">
                <rect x="0" y="0" width="1000" height="1000"/>
            </clipPath>
            <g clip-path="url(#_clip1)">
                <g transform="matrix(1,0,0,1,-5777.36,-1158.21)">
                    <path d="M6777.36,1212.73L6777.36,2103.68C6777.36,2133.77 6752.92,2158.21 6722.83,2158.21L5831.88,2158.21C5801.79,2158.21 5777.36,2133.77 5777.36,2103.68L5777.36,1212.73C5777.36,1182.64 5801.79,1158.21 5831.88,1158.21L6722.83,1158.21C6752.92,1158.21 6777.36,1182.64 6777.36,1212.73Z" style="fill:rgb(250,247,245);"/>
                </g>
                <g transform="matrix(1.17658,0,0,1.17658,-180.966,244.614)">
                    <path d="M552.393,429.167L422.815,429.167L274.378,4.949L396.252,4.949C396.252,4.949 477.266,282.1 484.761,307.741C485.089,308.864 486.119,309.636 487.29,309.636L487.659,309.636C488.541,309.636 489.356,309.267 489.933,308.656L493.283,299.13C509.27,250.609 581.103,48.953 594.601,11.091L596.762,4.949L715.646,4.949C808.098,4.949 883.157,66.732 883.157,172.46C883.157,221.505 862.033,265.656 828.395,296.303L874.886,429.167L753.012,429.167L726.831,339.603C726.805,339.605 726.78,339.606 726.754,339.608C717.573,308.201 707.131,272.479 697.43,239.29C697.209,238.536 697.357,237.721 697.829,237.092C698.3,236.462 699.041,236.092 699.827,236.092C705.313,236.092 715.646,236.092 715.646,236.092C750.765,236.092 779.278,207.58 779.278,172.46C779.278,137.341 750.765,108.828 715.646,108.828L664.806,108.828L552.393,429.167Z" style="fill:rgb(5,4,8);"/>
                </g>
            </g>
        </g>
    </g>
</svg>
